<svg width="196" height="34" fill="none" xmlns="http://www.w3.org/2000/svg"><path d="M0 17C0 7.611 7.611 0 17 0h162c9.389 0 17 7.611 17 17s-7.611 17-17 17H17C7.611 34 0 26.389 0 17Z" fill="url(#a)"/><path d="M24.82 16.62c.488.168.868.432 1.14.792.28.352.42.764.42 1.236 0 .512-.168.956-.504 1.332-.336.376-.792.664-1.368.864-.568.2-1.192.3-1.872.3a7.101 7.101 0 0 1-1.728-.216 6.33 6.33 0 0 1-1.62-.66l.6-1.392a4.69 4.69 0 0 0 1.212.516c.448.112.884.168 1.308.168.576 0 1.052-.104 1.428-.312.384-.208.576-.5.576-.876a.777.777 0 0 0-.396-.708c-.256-.16-.608-.24-1.056-.24h-2.052V15.96h1.908c.392 0 .696-.08.912-.24a.767.767 0 0 0 .336-.66c0-.328-.16-.584-.48-.768-.312-.184-.716-.276-1.212-.276-.368 0-.748.052-1.14.156a4.337 4.337 0 0 0-1.116.444l-.588-1.512a6.213 6.213 0 0 1 2.88-.684c.656 0 1.26.096 1.812.288.552.192.992.472 1.32.84.328.368.492.796.492 1.284 0 .4-.108.756-.324 1.068a2.088 2.088 0 0 1-.888.72Zm8.787 2.58h-3.9l-.744 1.8h-1.992l3.744-8.4h1.92l3.756 8.4h-2.04l-.744-1.8Zm-.612-1.476-1.332-3.216-1.332 3.216h2.664Zm8.146-5.124c.744 0 1.388.124 1.932.372.552.248.976.6 1.272 1.056.296.456.444.996.444 1.62 0 .616-.148 1.156-.444 1.62-.296.456-.72.808-1.272 1.056-.544.24-1.188.36-1.932.36h-1.692V21h-1.944v-8.4h3.636Zm-.108 4.5c.584 0 1.028-.124 1.332-.372.304-.256.456-.616.456-1.08 0-.472-.152-.832-.456-1.08-.304-.256-.748-.384-1.332-.384h-1.584V17.1h1.584Zm11.542 2.34V21h-6.504v-8.4h6.348v1.56h-4.416v1.824h3.9v1.512h-3.9v1.944h4.572Zm7.487-5.256h-3.996L56.078 21h-1.932v-8.4h5.928l-.012 1.584Zm1.197-1.584h1.932v5.472l4.008-5.472h1.824V21h-1.92v-5.46L63.095 21h-1.836v-8.4Zm13.827 8.544c-.856 0-1.632-.184-2.328-.552a4.277 4.277 0 0 1-1.632-1.548c-.392-.664-.588-1.412-.588-2.244 0-.832.196-1.576.588-2.232.4-.664.944-1.18 1.632-1.548.696-.376 1.476-.564 2.34-.564.728 0 1.384.128 1.968.384a3.943 3.943 0 0 1 1.488 1.104l-1.248 1.152c-.568-.656-1.272-.984-2.112-.984-.52 0-.984.116-1.392.348-.408.224-.728.54-.96.948a2.844 2.844 0 0 0-.336 1.392c0 .52.112.984.336 1.392.232.408.552.728.96.96.408.224.872.336 1.392.336.84 0 1.544-.332 2.112-.996l1.248 1.152c-.4.488-.896.86-1.488 1.116-.592.256-1.252.384-1.98.384Zm11.073-6.96h-2.688V21h-1.92v-6.816h-2.676V12.6h7.284v1.584Zm4.857-1.584c.744 0 1.388.124 1.932.372.552.248.976.6 1.272 1.056.296.456.444.996.444 1.62 0 .616-.148 1.156-.444 1.62-.296.456-.72.808-1.272 1.056-.544.24-1.188.36-1.932.36h-1.692V21H87.38v-8.4h3.636Zm-.108 4.5c.584 0 1.028-.124 1.332-.372.304-.256.456-.616.456-1.08 0-.472-.152-.832-.456-1.08-.304-.256-.748-.384-1.332-.384h-1.584V17.1h1.584Zm5.038-4.5h1.932v5.472l4.008-5.472h1.824V21h-1.92v-5.46L97.782 21h-1.836v-8.4Zm13.492 0c.744 0 1.388.124 1.932.372.552.248.976.6 1.272 1.056.296.456.444.996.444 1.62 0 .616-.148 1.156-.444 1.62-.296.456-.72.808-1.272 1.056-.544.24-1.188.36-1.932.36h-1.692V21h-1.944v-8.4h3.636Zm-.108 4.5c.584 0 1.028-.124 1.332-.372.304-.256.456-.616.456-1.08 0-.472-.152-.832-.456-1.08-.304-.256-.748-.384-1.332-.384h-1.584V17.1h1.584Zm9.163 4.044c-.872 0-1.66-.188-2.364-.564a4.255 4.255 0 0 1-1.644-1.548c-.392-.664-.588-1.408-.588-2.232 0-.824.196-1.564.588-2.22.4-.664.948-1.184 1.644-1.56.704-.376 1.492-.564 2.364-.564.872 0 1.656.188 2.352.564a4.226 4.226 0 0 1 1.644 1.56c.4.656.6 1.396.6 2.22 0 .824-.2 1.568-.6 2.232a4.255 4.255 0 0 1-1.644 1.548c-.696.376-1.48.564-2.352.564Zm0-1.656c.496 0 .944-.112 1.344-.336.4-.232.712-.552.936-.96.232-.408.348-.872.348-1.392 0-.52-.116-.984-.348-1.392a2.372 2.372 0 0 0-.936-.948 2.63 2.63 0 0 0-1.344-.348 2.63 2.63 0 0 0-1.344.348c-.4.224-.716.54-.948.948a2.844 2.844 0 0 0-.336 1.392c0 .52.112.984.336 1.392.232.408.548.728.948.96.4.224.848.336 1.344.336Zm11.914-2.868c.512.152.904.4 1.176.744.272.344.408.768.408 1.272 0 .744-.284 1.324-.852 1.74-.56.416-1.364.624-2.412.624h-4.14v-8.4h3.912c.976 0 1.736.188 2.28.564.544.376.816.912.816 1.608 0 .416-.104.784-.312 1.104-.208.312-.5.56-.876.744Zm-3.888-.54h1.812c.424 0 .744-.084.96-.252.216-.176.324-.432.324-.768 0-.328-.112-.58-.336-.756-.216-.176-.532-.264-.948-.264h-1.812v2.04Zm2.136 3.48c.912 0 1.368-.36 1.368-1.08 0-.696-.456-1.044-1.368-1.044h-2.136v2.124h2.136Zm10.561-.36h-3.9l-.744 1.8h-1.992l3.744-8.4h1.92L142 21h-2.04l-.744-1.8Zm-.612-1.476-1.332-3.216-1.332 3.216h2.664Zm10.508-3.54h-2.688V21h-1.92v-6.816h-2.676V12.6h7.284v1.584Zm5.289 1.176c1.024 0 1.808.228 2.352.684.552.456.828 1.132.828 2.028 0 .952-.304 1.68-.912 2.184-.6.496-1.448.744-2.544.744h-3.792v-8.4h1.932v2.76h2.136Zm-.384 4.2c.504 0 .896-.124 1.176-.372.288-.248.432-.608.432-1.08 0-.872-.536-1.308-1.608-1.308h-1.752v2.76h1.752Zm8.937 1.584c-.856 0-1.632-.184-2.328-.552a4.277 4.277 0 0 1-1.632-1.548c-.392-.664-.588-1.412-.588-2.244 0-.832.196-1.576.588-2.232.4-.664.944-1.18 1.632-1.548.696-.376 1.476-.564 2.34-.564.728 0 1.384.128 1.968.384a3.943 3.943 0 0 1 1.488 1.104l-1.248 1.152c-.568-.656-1.272-.984-2.112-.984-.52 0-.984.116-1.392.348-.408.224-.728.54-.96.948a2.844 2.844 0 0 0-.336 1.392c0 .52.112.984.336 1.392.232.408.552.728.96.96.408.224.872.336 1.392.336.84 0 1.544-.332 2.112-.996l1.248 1.152c-.4.488-.896.86-1.488 1.116-.592.256-1.252.384-1.98.384Zm11.278-8.544V21h-1.92v-2.232h-1.776L169.048 21h-2.052l1.752-2.532c-.568-.232-1.004-.58-1.308-1.044-.304-.472-.456-1.036-.456-1.692 0-.648.148-1.204.444-1.668a2.83 2.83 0 0 1 1.26-1.08c.544-.256 1.184-.384 1.92-.384h3.624Zm-3.576 1.584c-.552 0-.976.128-1.272.384-.288.256-.432.636-.432 1.14 0 .488.14.864.42 1.128.28.264.692.396 1.236.396h1.704v-3.048h-1.656Z" fill="#fff"/><defs><linearGradient id="a" x1="98" y1="0" x2="98" y2="34" gradientUnits="userSpaceOnUse"><stop stop-color="#BC9CFF"/><stop offset="1" stop-color="#8BA4F9"/></linearGradient></defs></svg>