<svg width="22" height="22" fill="none" xmlns="http://www.w3.org/2000/svg"><path d="M11 5.61c2.953 0 5.39 2.437 5.39 5.39 0 3-2.437 5.39-5.39 5.39-3 0-5.39-2.39-5.39-5.39A5.39 5.39 0 0 1 11 5.61Zm0 8.906c1.922 0 3.469-1.547 3.469-3.516A3.46 3.46 0 0 0 11 7.531c-1.969 0-3.516 1.547-3.516 3.469A3.51 3.51 0 0 0 11 14.516Zm6.844-9.094a1.26 1.26 0 0 1-1.266 1.266 1.26 1.26 0 0 1-1.265-1.266 1.26 1.26 0 0 1 1.265-1.266 1.26 1.26 0 0 1 1.266 1.266Zm3.562 1.266c.094 1.734.094 6.937 0 8.671-.093 1.688-.468 3.141-1.687 4.407-1.219 1.218-2.719 1.593-4.407 1.687-1.734.094-6.937.094-8.671 0-1.688-.094-3.141-.469-4.407-1.687C1.016 18.5.641 17.046.547 15.359c-.094-1.734-.094-6.937 0-8.671C.64 5 1.016 3.5 2.234 2.28 3.5 1.062 4.954.687 6.641.594 8.375.5 13.578.5 15.312.594 17 .688 18.5 1.063 19.72 2.28 20.937 3.5 21.312 5 21.406 6.687Zm-2.25 10.5c.563-1.36.422-4.641.422-6.188 0-1.5.14-4.781-.422-6.188-.375-.89-1.078-1.64-1.968-1.968C15.78 2.28 12.5 2.422 11 2.422c-1.547 0-4.828-.14-6.188.422a3.616 3.616 0 0 0-2.015 1.969C2.234 6.218 2.375 9.5 2.375 11c0 1.547-.14 4.828.422 6.188a3.554 3.554 0 0 0 2.015 2.015c1.36.563 4.641.422 6.188.422 1.5 0 4.781.14 6.188-.422.89-.375 1.64-1.078 1.968-2.015Z" fill="url(#a)"/><defs><linearGradient id="a" x1="11" y1="1" x2="11" y2="25" gradientUnits="userSpaceOnUse"><stop stop-color="#BC9CFF"/><stop offset="1" stop-color="#8BA4F9"/></linearGradient></defs></svg>