<svg width="22" height="22" fill="none" xmlns="http://www.w3.org/2000/svg"><path d="M19.25.5c1.219 0 2.25 1.031 2.25 2.25v16.5a2.25 2.25 0 0 1-2.25 2.25h-6.469v-7.125H15.5L16.016 11H12.78V8.844c0-.938.469-1.828 1.922-1.828h1.453v-2.86s-1.312-.234-2.625-.234c-2.625 0-4.36 1.64-4.36 4.547V11H6.22v3.375h2.953V21.5H2.75A2.221 2.221 0 0 1 .5 19.25V2.75A2.25 2.25 0 0 1 2.75.5h16.5Z" fill="url(#a)"/><defs><linearGradient id="a" x1="11" y1="1" x2="11" y2="25" gradientUnits="userSpaceOnUse"><stop stop-color="#BC9CFF"/><stop offset="1" stop-color="#8BA4F9"/></linearGradient></defs></svg>