<svg width="87" height="34" fill="none" xmlns="http://www.w3.org/2000/svg"><path d="M1 17C1 8.163 8.163 1 17 1h53c8.837 0 16 7.163 16 16s-7.163 16-16 16H17C8.163 33 1 25.837 1 17Z" stroke="url(#a)" stroke-width="2"/><path d="M26.864 16.62c.512.152.904.4 1.176.744.272.344.408.768.408 1.272 0 .744-.284 1.324-.852 1.74-.56.416-1.364.624-2.412.624h-4.14v-8.4h3.912c.976 0 1.736.188 2.28.564.544.376.816.912.816 1.608 0 .416-.104.784-.312 1.104-.208.312-.5.56-.876.744Zm-3.888-.54h1.812c.424 0 .744-.084.96-.252.216-.176.324-.432.324-.768 0-.328-.112-.58-.336-.756-.216-.176-.532-.264-.948-.264h-1.812v2.04Zm2.136 3.48c.912 0 1.368-.36 1.368-1.08 0-.696-.456-1.044-1.368-1.044h-2.136v2.124h2.136Zm8.881 1.584c-.872 0-1.66-.188-2.364-.564a4.255 4.255 0 0 1-1.644-1.548c-.392-.664-.588-1.408-.588-2.232 0-.824.196-1.564.588-2.22.4-.664.948-1.184 1.644-1.56.704-.376 1.492-.564 2.364-.564.872 0 1.656.188 2.352.564a4.226 4.226 0 0 1 1.644 1.56c.4.656.6 1.396.6 2.22 0 .824-.2 1.568-.6 2.232a4.255 4.255 0 0 1-1.644 1.548c-.696.376-1.48.564-2.352.564Zm0-1.656c.496 0 .944-.112 1.344-.336.4-.232.712-.552.936-.96.232-.408.348-.872.348-1.392 0-.52-.116-.984-.348-1.392a2.372 2.372 0 0 0-.936-.948 2.63 2.63 0 0 0-1.344-.348 2.63 2.63 0 0 0-1.344.348c-.4.224-.716.54-.948.948a2.844 2.844 0 0 0-.336 1.392c0 .52.112.984.336 1.392.232.408.548.728.948.96.4.224.848.336 1.344.336Zm6.094-6.888h1.932v5.472l4.008-5.472h1.824V21h-1.92v-5.46L41.923 21h-1.836v-8.4Zm3.876-.54c-1.536 0-2.312-.612-2.328-1.836h1.332c.016.584.348.876.996.876.32 0 .564-.072.732-.216.168-.152.256-.372.264-.66h1.332c-.008.6-.204 1.056-.588 1.368-.384.312-.964.468-1.74.468Zm12.4 2.124h-2.689V21h-1.92v-6.816h-2.676V12.6h7.284v1.584Zm1.22-1.584h1.932v5.472l4.008-5.472h1.824V21h-1.92v-5.46L59.42 21h-1.836v-8.4Z" fill="#BC9CFF"/><defs><linearGradient id="a" x1="43.5" y1="0" x2="43.5" y2="34" gradientUnits="userSpaceOnUse"><stop stop-color="#BC9CFF"/><stop offset="1" stop-color="#8BA4F9"/></linearGradient></defs></svg>