<svg width="22" height="22" viewBox="0 0 22 22" fill="none" xmlns="http://www.w3.org/2000/svg">
<path d="M19.25 0.5C20.4688 0.5 21.5 1.53125 21.5 2.75V19.25C21.5 20.5156 20.4688 21.5 19.25 21.5H12.7812V14.375H15.5L16.0156 11H12.7812V8.84375C12.7812 7.90625 13.25 7.01562 14.7031 7.01562H16.1562V4.15625C16.1562 4.15625 14.8438 3.92188 13.5312 3.92188C10.9062 3.92188 9.17188 5.5625 9.17188 8.46875V11H6.21875V14.375H9.17188V21.5H2.75C1.48438 21.5 0.5 20.5156 0.5 19.25V2.75C0.5 1.53125 1.48438 0.5 2.75 0.5H19.25Z" fill="url(#paint0_linear_18370_9)"/>
<defs>
<linearGradient id="paint0_linear_18370_9" x1="11" y1="1" x2="11" y2="25" gradientUnits="userSpaceOnUse">
<stop stop-color="#BC9CFF"/>
<stop offset="1" stop-color="#8BA4F9"/>
</linearGradient>
</defs>
</svg>
